<svg width="46" height="46" viewBox="0 0 46 46" fill="none" xmlns="http://www.w3.org/2000/svg">
<path d="M27.7761 4.59998H17.5586V8.00581H27.7761V4.59998Z" fill="#FA3550"/>
<path d="M24.3706 16.5204V20.2157L36.2569 32.1021C37.3638 29.9905 37.9939 27.5894 37.9939 25.035C37.9939 21.4248 36.7338 18.1041 34.6392 15.4816L37.0573 13.0635C36.3251 12.195 35.5247 11.3776 34.6562 10.6624L32.2381 13.0805C29.5986 10.9689 26.2779 9.70874 22.6677 9.70874C20.1133 9.70874 17.7122 10.3388 15.6006 11.4457L20.6753 16.5204H24.3706Z" fill="#FA3550"/>
<path d="M7.01775 7.68237L4.59961 10.0835L10.3895 15.8734C8.48226 18.4278 7.3413 21.5952 7.3413 25.0351C7.3413 33.4986 14.187 40.3613 22.6675 40.3613C26.1074 40.3613 29.2748 39.2204 31.8292 37.3131L35.9162 41.4001L38.3173 38.999L7.01775 7.68237Z" fill="#FA3550"/>
</svg>
