<svg width="47" height="47" viewBox="0 0 47 47" fill="none" xmlns="http://www.w3.org/2000/svg">
<path fill-rule="evenodd" clip-rule="evenodd" d="M45.5342 15.4782C44.618 12.8018 42.7857 10.1254 40.9534 8.04375L40.0373 6.85425L36.9835 9.82801L38.205 11.0175C43.0911 16.0729 44.618 24.1021 41.5642 30.9417C38.5104 38.0788 31.4866 42.8368 23.5467 42.8368C21.7144 42.8368 19.8821 42.5394 18.0498 41.9447C11.6368 40.1604 6.75068 35.105 4.91838 29.1575C3.08609 22.9126 4.613 15.7755 9.19373 11.3149L10.4153 9.82801L7.36144 6.85425L6.13991 8.04375C0.337657 14.2887 -1.49463 23.21 1.2538 30.9417C2.78071 35.4024 5.22377 38.9709 8.88835 41.9447C12.2475 44.6211 16.2175 46.4053 20.7982 47.0001C21.409 47.0001 22.3251 47.0001 23.5467 47.0001C24.7682 47.0001 25.6843 47.0001 26.2951 47.0001C33.6243 46.108 40.0373 41.9447 43.7019 35.6998C47.3665 29.4549 47.9772 22.3178 45.5342 15.4782Z" fill="#0098FF"/>
</svg>
