<svg width="17" height="17" viewBox="0 0 17 17" fill="none" xmlns="http://www.w3.org/2000/svg">
<path fill-rule="evenodd" clip-rule="evenodd" d="M7.14683 1.301C6.5453 1.38971 6.00304 1.85229 5.83401 2.42092L5.79833 2.54091H4.38649H2.97461V2.89383V3.24675H8.49961H14.0246V2.89383V2.54091H12.6119H11.1993L11.1629 2.41022C11.0082 1.8539 10.4508 1.39017 9.82777 1.29951C9.59737 1.26597 7.37593 1.26721 7.14683 1.301ZM9.83116 2.16391C9.96623 2.21024 10.2384 2.43986 10.2384 2.50748C10.2384 2.53286 9.82014 2.54091 8.49961 2.54091C7.17908 2.54091 6.76078 2.53286 6.76078 2.50748C6.76078 2.4448 7.03318 2.2095 7.15659 2.16563C7.34668 2.09801 9.63476 2.09654 9.83116 2.16391ZM3.42334 4.06459V4.6283L3.54394 4.76498C3.61024 4.84017 3.69544 4.95177 3.73325 5.01298L3.80196 5.12428L3.81598 9.99457L3.83 14.8649L3.91136 15.0422C4.00103 15.2377 4.24124 15.4863 4.43815 15.5875C4.70783 15.726 4.67939 15.725 8.49961 15.725C12.3318 15.725 12.2905 15.7264 12.5672 15.5843C12.7109 15.5105 12.9434 15.2971 13.0281 15.1613C13.1775 14.9217 13.1681 15.2329 13.1832 9.99392L13.1973 5.12298L13.2868 4.98246C13.3361 4.90519 13.4213 4.79815 13.4761 4.74465L13.5759 4.64736V4.0741V3.50085H8.49961H3.42334V4.06459ZM6.78882 9.55766V13.1864L6.33308 13.1786L5.87734 13.1708L5.87021 9.54989L5.86309 5.92894H6.32596H6.78882V9.55766ZM8.97639 9.55695V13.185H8.52765H8.07892V9.55695V5.92894H8.52765H8.97639V9.55695ZM11.4095 9.54989L11.4023 13.1708L10.9466 13.1786L10.4909 13.1864V9.55766V5.92894H10.9537H11.4166L11.4095 9.54989Z" fill="#0098FF"/>
</svg>
