<svg width="21" height="26" viewBox="0 0 21 26" fill="none" xmlns="http://www.w3.org/2000/svg">
<path d="M18.375 5.1H15.75C15.75 2.28225 13.4006 0 10.5 0C7.59937 0 5.25 2.28225 5.25 5.1H2.625C1.18125 5.1 0 6.2475 0 7.65V22.95C0 24.3525 1.18125 25.5 2.625 25.5H18.375C19.8188 25.5 21 24.3525 21 22.95V7.65C21 6.2475 19.8188 5.1 18.375 5.1ZM7.875 10.2C7.875 10.9012 7.28438 11.475 6.5625 11.475C5.84062 11.475 5.25 10.9012 5.25 10.2V7.65H7.875V10.2ZM10.5 2.55C11.9438 2.55 13.125 3.6975 13.125 5.1H7.875C7.875 3.6975 9.05625 2.55 10.5 2.55ZM15.75 10.2C15.75 10.9012 15.1594 11.475 14.4375 11.475C13.7156 11.475 13.125 10.9012 13.125 10.2V7.65H15.75V10.2Z" fill="#FCFCFC"/>
</svg>
