<svg width="301" height="142" viewBox="0 0 301 142" fill="none" xmlns="http://www.w3.org/2000/svg">
<path d="M300.315 0H0.314941V142H300.315V0Z" fill="#151009"/>
<path fill-rule="evenodd" clip-rule="evenodd" d="M53.3547 86.1233C53.3547 90.2623 51.2045 92.4114 47.0633 92.4114H19.6675C15.5262 92.4114 13.376 90.2623 13.376 86.1233V19.3419C13.376 15.2029 15.5262 13.0538 19.6675 13.0538H47.0633C51.2045 13.0538 53.3547 15.2029 53.3547 19.3419V86.1233ZM41.4885 82.2231V23.2422H25.2422V82.2231H41.4885Z" fill="white"/>
<path fill-rule="evenodd" clip-rule="evenodd" d="M100.182 13.0538L85.0506 92.491H73.1844L58.053 13.0538H69.9988L78.8387 67.4182C78.9184 69.0101 78.998 71.2388 79.1573 74.1839C79.1573 72.6715 79.2369 70.3632 79.4759 67.4182L88.3954 13.0538H100.182V13.0538Z" fill="white"/>
<path fill-rule="evenodd" clip-rule="evenodd" d="M138.967 92.4114H127.26L124.87 77.3677H109.978L107.589 92.4114H95.8818V92.1726L111.252 12.8946H123.755L138.967 92.4114ZM123.198 67.1793L117.384 31.361L111.571 67.1793H123.198Z" fill="white"/>
<path fill-rule="evenodd" clip-rule="evenodd" d="M172.017 23.5606H158.956V92.4114H147.09V23.5606H134.029V13.0538H172.017V23.5606Z" fill="white"/>
<path d="M187.944 13.0538H176.078V92.4114H187.944V13.0538Z" fill="white"/>
<path fill-rule="evenodd" clip-rule="evenodd" d="M237.639 86.1233C237.639 90.2623 235.489 92.4114 231.347 92.4114H203.952C199.81 92.4114 197.66 90.2623 197.66 86.1233V19.3419C197.66 15.2029 199.81 13.0538 203.952 13.0538H231.347C235.489 13.0538 237.639 15.2029 237.639 19.3419V86.1233ZM225.773 82.2231V23.2422H209.447V82.2231H225.773Z" fill="white"/>
<path fill-rule="evenodd" clip-rule="evenodd" d="M286.776 92.4114H276.423L257.389 42.5045C257.867 44.8924 258.186 46.8823 258.186 48.2354V92.4114H246.638V13.0538H256.991L276.025 62.0056C275.547 59.5381 275.229 57.6278 275.229 56.2747V13.0538H286.776V92.4114Z" fill="white"/>
<path d="M298.802 94.7993H1.82788V140.488H298.802V94.7993Z" fill="#FFF200"/>
<path d="M75.016 104.908H68.8042V134.996H63.1498V104.908H56.938V100.292H75.016V104.908V104.908Z" fill="black"/>
<path d="M93.5721 134.996H87.9177V100.292H93.5721V134.996Z" fill="black"/>
<path d="M126.702 131.812C126.702 133.961 125.587 134.996 123.277 134.996H111.491C109.261 134.996 108.146 133.961 108.146 131.812V103.475C108.146 101.326 109.261 100.292 111.491 100.292H123.277C125.587 100.292 126.702 101.326 126.702 103.475V111.594H121.048V104.749H113.721V130.538H121.048V123.215H126.702V131.812Z" fill="black"/>
<path d="M160.15 134.996H153.938L146.771 119.554V134.996H141.116V100.292H146.771V114.937L153.062 100.292H159.274V100.53L151.549 117.007L160.15 134.996Z" fill="black"/>
<path d="M188.024 134.996H172.335V100.292H187.865V104.908H177.989V115.017H186.511V119.474H177.989V130.379H188.024V134.996Z" fill="black"/>
<path d="M218.207 104.908H211.995V134.996H206.341V104.908H200.129V100.292H218.207V104.908V104.908Z" fill="black"/>
<path d="M249.107 131.812C249.107 133.961 247.992 134.996 245.683 134.996H234.294C231.985 134.996 230.87 133.961 230.87 131.812V123.534H236.524V130.618H243.453V123.852L232.144 113.982C231.348 113.266 230.95 112.311 230.95 111.196V103.475C230.95 101.326 232.064 100.292 234.374 100.292H245.762C248.072 100.292 249.187 101.326 249.187 103.475V111.196H243.532V104.669H236.604V110.957L247.913 120.748C248.709 121.464 249.107 122.419 249.107 123.534V131.812Z" fill="black"/>
</svg>
